# xmcd
#
# Track frame offsets:
#	200
#	12347
#	28472
#	45602
#	59460
#	73022
#	87180
#	99365
#	111460
#	124502
#
# Disc length: 1791 seconds
#
# Revision: 0
# Processed by: cddbd v1.5.2PL0 Copyright (c) Steve Scherf et al.
# Submitted via: EasyCDDAExtractor 10.0.6.1
#
DISCID=8706fd0a
DTITLE=The Singing Cookes - Heavenly Flight
DYEAR=1900
DGENRE=Gospel
TTITLE0=Let Me Rise
TTITLE1=Land Of My Dreams
TTITLE2=Eternity Has Begun
TTITLE3=Precious memories Come Alive
TTITLE4=The King Is Coming Back
TTITLE5=My Heart's Already Home
TTITLE6=Heavenly Flight
TTITLE7=Calvary's Battleground
TTITLE8=All I Have To Offer Is Jesus
TTITLE9=Running My Last Mile Home
EXTD=
EXTT0=
EXTT1=
EXTT2=
EXTT3=
EXTT4=
EXTT5=
EXTT6=
EXTT7=
EXTT8=
EXTT9=
PLAYORDER=
